<svg width="24" height="26" viewBox="0 0 24 26" fill="none" xmlns="http://www.w3.org/2000/svg">
<mask id="mask0_1_125" style="mask-type:luminance" maskUnits="userSpaceOnUse" x="0" y="0" width="24" height="26">
<path d="M24 0L24 26L0.0194115 26L0.019413 -9.80642e-07L24 0Z" fill="white"/>
</mask>
<g mask="url(#mask0_1_125)">
<path fill-rule="evenodd" clip-rule="evenodd" d="M20.0523 13.2817C20.1042 13.143 20.117 12.9907 20.0891 12.8442C20.0612 12.6976 19.9938 12.5633 19.8954 12.4583L12.5064 4.44707C12.4414 4.37665 12.3643 4.32078 12.2794 4.28267C12.1946 4.24456 12.1036 4.22494 12.0118 4.22494C11.9199 4.22494 11.8289 4.24456 11.7441 4.28267C11.6592 4.32078 11.5821 4.37665 11.5172 4.44707C11.386 4.58929 11.3123 4.78218 11.3123 4.98332C11.3123 5.08291 11.3304 5.18152 11.3655 5.27353C11.4007 5.36554 11.4522 5.44915 11.5172 5.51957L17.7152 12.2384L4.61973 12.2384C4.43423 12.2384 4.25633 12.3183 4.12516 12.4605C3.99399 12.6027 3.9203 12.7956 3.9203 12.9967C3.9203 13.1979 3.99399 13.3907 4.12516 13.533C4.25633 13.6752 4.43423 13.7551 4.61973 13.7551L17.7152 13.7551L11.5172 20.475C11.4522 20.5454 11.4007 20.629 11.3655 20.721C11.3304 20.813 11.3123 20.9116 11.3123 21.0112C11.3123 21.1108 11.3304 21.2094 11.3655 21.3015C11.4007 21.3935 11.4522 21.4771 11.5172 21.5475C11.5821 21.6179 11.6592 21.6738 11.7441 21.7119C11.8289 21.75 11.9199 21.7696 12.0118 21.7696C12.1036 21.7696 12.1946 21.75 12.2794 21.7119C12.3643 21.6738 12.4414 21.6179 12.5064 21.5475L19.8984 13.533C19.9648 13.4609 20.0172 13.3751 20.0523 13.2806L20.0523 13.2817Z" fill="white"/>
</g>
</svg>
