<svg width="25" height="26" viewBox="0 0 25 26" fill="none" xmlns="http://www.w3.org/2000/svg">
<mask id="mask0_1_135" style="mask-type:luminance" maskUnits="userSpaceOnUse" x="0" y="0" width="25" height="26">
<path d="M0.821381 26L0.821381 0L24.802 -5.27705e-07L24.802 26L0.821381 26Z" fill="white"/>
</mask>
<g mask="url(#mask0_1_135)">
<path fill-rule="evenodd" clip-rule="evenodd" d="M4.76911 12.7183C4.71718 12.857 4.70436 13.0092 4.73229 13.1558C4.76021 13.3024 4.82762 13.4367 4.92599 13.5417L12.315 21.5529C12.38 21.6233 12.4571 21.6792 12.5419 21.7173C12.6268 21.7554 12.7178 21.775 12.8096 21.775C12.9015 21.775 12.9924 21.7554 13.0773 21.7173C13.1622 21.6792 13.2393 21.6233 13.3042 21.5529C13.4354 21.4107 13.5091 21.2178 13.5091 21.0167C13.5091 20.9171 13.491 20.8184 13.4558 20.7264C13.4207 20.6344 13.3692 20.5508 13.3042 20.4804L7.10623 13.7616L20.2016 13.7616C20.3871 13.7616 20.5651 13.6817 20.6962 13.5395C20.8274 13.3972 20.9011 13.2044 20.9011 13.0032C20.9011 12.8021 20.8274 12.6092 20.6962 12.467C20.5651 12.3248 20.3871 12.2449 20.2016 12.2449L7.10623 12.2449L13.3042 5.52499C13.3692 5.45457 13.4207 5.37096 13.4558 5.27895C13.491 5.18694 13.5091 5.08833 13.5091 4.98874C13.5091 4.88914 13.491 4.79053 13.4558 4.69852C13.4207 4.60651 13.3692 4.52291 13.3042 4.45249C13.2393 4.38206 13.1622 4.3262 13.0773 4.28809C12.9924 4.24998 12.9015 4.23036 12.8096 4.23036C12.7178 4.23036 12.6268 4.24998 12.5419 4.28809C12.4571 4.3262 12.38 4.38206 12.315 4.45249L4.92299 12.467C4.85654 12.539 4.8042 12.6249 4.76911 12.7194L4.76911 12.7183Z" fill="white"/>
</g>
</svg>
