<svg width="40" height="40" viewBox="0 0 40 40" fill="none" xmlns="http://www.w3.org/2000/svg">
<g id="Group 2">
<path id="Ellipse 1" d="M39.6055 20C39.6055 30.7696 30.875 39.5 20.1055 39.5C9.33592 39.5 0.605469 30.7696 0.605469 20C0.605469 9.23045 9.33592 0.5 20.1055 0.5C30.875 0.5 39.6055 9.23045 39.6055 20Z" fill="#0077C8" stroke="white"/>
<g id="Clip path group">
<mask id="mask0_1_132" style="mask-type:luminance" maskUnits="userSpaceOnUse" x="8" y="7" width="24" height="26">
<g id="clip0_8917_2888">
<path id="Vector" d="M32 7L32 33L8.01941 33L8.01941 7L32 7Z" fill="white"/>
</g>
</mask>
<g mask="url(#mask0_1_132)">
<g id="Group">
<path id="Vector_2" fill-rule="evenodd" clip-rule="evenodd" d="M28.0523 20.2817C28.1042 20.143 28.117 19.9907 28.0891 19.8442C28.0612 19.6976 27.9938 19.5633 27.8954 19.4583L20.5064 11.4471C20.4414 11.3766 20.3643 11.3208 20.2794 11.2827C20.1946 11.2446 20.1036 11.2249 20.0118 11.2249C19.9199 11.2249 19.8289 11.2446 19.7441 11.2827C19.6592 11.3208 19.5821 11.3766 19.5172 11.4471C19.386 11.5893 19.3123 11.7822 19.3123 11.9833C19.3123 12.0829 19.3304 12.1815 19.3655 12.2735C19.4007 12.3655 19.4522 12.4491 19.5172 12.5196L25.7152 19.2384L12.6197 19.2384C12.4342 19.2384 12.2563 19.3183 12.1252 19.4605C11.994 19.6027 11.9203 19.7956 11.9203 19.9967C11.9203 20.1979 11.994 20.3907 12.1252 20.533C12.2563 20.6752 12.4342 20.7551 12.6197 20.7551L25.7152 20.7551L19.5172 27.475C19.4522 27.5454 19.4007 27.629 19.3655 27.721C19.3304 27.813 19.3123 27.9116 19.3123 28.0112C19.3123 28.1108 19.3304 28.2094 19.3655 28.3015C19.4007 28.3935 19.4522 28.4771 19.5172 28.5475C19.5821 28.6179 19.6592 28.6738 19.7441 28.7119C19.8289 28.75 19.9199 28.7696 20.0118 28.7696C20.1036 28.7696 20.1946 28.75 20.2794 28.7119C20.3643 28.6738 20.4414 28.6179 20.5064 28.5475L27.8984 20.533C27.9648 20.4609 28.0172 20.3751 28.0523 20.2806L28.0523 20.2817Z" fill="white"/>
</g>
</g>
</g>
</g>
</svg>
